<svg width="20" height="20" viewBox="0 0 20 20" fill="none" xmlns="http://www.w3.org/2000/svg">
<path d="M1.66666 1.66667H3.11666C4.01666 1.66667 4.72499 2.44167 4.64999 3.33334L3.95832 11.6333C3.84166 12.9917 4.91665 14.1583 6.28332 14.1583H15.1583C16.3583 14.1583 17.4083 13.175 17.5 11.9833L17.95 5.73334C18.05 4.35001 17 3.225 15.6083 3.225H4.85" stroke="white" stroke-width="1.5" stroke-miterlimit="10" stroke-linecap="round" stroke-linejoin="round"/>
<path d="M13.5417 18.3333C14.117 18.3333 14.5833 17.867 14.5833 17.2917C14.5833 16.7164 14.117 16.25 13.5417 16.25C12.9664 16.25 12.5 16.7164 12.5 17.2917C12.5 17.867 12.9664 18.3333 13.5417 18.3333Z" stroke="white" stroke-width="1.5" stroke-miterlimit="10" stroke-linecap="round" stroke-linejoin="round"/>
<path d="M6.87501 18.3333C7.45031 18.3333 7.91668 17.867 7.91668 17.2917C7.91668 16.7164 7.45031 16.25 6.87501 16.25C6.29971 16.25 5.83334 16.7164 5.83334 17.2917C5.83334 17.867 6.29971 18.3333 6.87501 18.3333Z" stroke="white" stroke-width="1.5" stroke-miterlimit="10" stroke-linecap="round" stroke-linejoin="round"/>
<path d="M7.5 6.66667H17.5" stroke="white" stroke-width="1.5" stroke-miterlimit="10" stroke-linecap="round" stroke-linejoin="round"/>
</svg>
