<svg width="18" height="18" viewBox="0 0 18 18" fill="none" xmlns="http://www.w3.org/2000/svg">
<path d="M15.9627 6.20683L11.4996 5.5582L9.50448 1.51347C9.44999 1.40273 9.36034 1.31308 9.2496 1.25859C8.97186 1.12148 8.63436 1.23574 8.49549 1.51347L6.50038 5.5582L2.03729 6.20683C1.91425 6.22441 1.80174 6.28242 1.71561 6.37031C1.61148 6.47734 1.5541 6.62133 1.55608 6.77064C1.55806 6.91995 1.61923 7.06237 1.72616 7.1666L4.95526 10.3148L4.19237 14.7603C4.17448 14.8638 4.18592 14.9701 4.2254 15.0674C4.26488 15.1646 4.33082 15.2488 4.41573 15.3105C4.50065 15.3722 4.60114 15.4088 4.70583 15.4163C4.81051 15.4237 4.91519 15.4017 5.00799 15.3527L8.99999 13.2539L12.992 15.3527C13.101 15.4107 13.2275 15.4301 13.3488 15.409C13.6547 15.3562 13.8603 15.0662 13.8076 14.7603L13.0447 10.3148L16.2738 7.1666C16.3617 7.08047 16.4197 6.96797 16.4373 6.84492C16.4848 6.5373 16.2703 6.25254 15.9627 6.20683Z" fill="#FFD33C"/>
</svg>
